<svg viewBox="0 0 500 200" xmlns="http://www.w3.org/2000/svg">
  <g transform="matrix(1, 0, 0, 1, -149.010483, -57.625149)">
    <path stroke-width="0" d="M 223.388 66.066 C 227.46 65.453 231.403 65.697 235.611 67.231 C 240.567 69.037 247.033 72.856 251.036 77.417 C 252.755 79.376 253.843 82.367 254.828 85.366 C 255.024 85.331 255.216 85.301 255.402 85.275 C 258.455 84.853 260.957 85.399 263.551 86.439 C 266.309 87.545 269.326 89.106 271.409 91.969 C 271.832 92.551 272.253 93.228 272.66 93.972 C 272.728 93.983 272.796 93.994 272.864 94.006 C 277.586 94.865 283.377 97.41 287.125 100.7 C 290.817 103.941 293.646 109.223 295.274 113.505 C 296.744 117.374 297.987 119.924 297.02 125.147 C 295.438 133.685 284.538 155.665 279.849 161.526 C 277.442 164.534 275.875 164.724 273.446 165.601 C 270.868 166.531 267.788 167.202 264.715 166.765 C 261.237 166.27 257.332 162.553 253.655 162.108 C 250.154 161.685 248.006 164.062 243.178 163.855 C 235.498 163.525 217.984 156.026 210 156.87 C 204.427 157.459 202.286 161.998 197.776 163.273 C 193.021 164.617 186.808 164.932 182.061 164.437 C 177.781 163.99 173.574 162.705 170.419 160.944 C 167.614 159.379 165.772 157.467 163.725 154.832 C 161.34 151.763 158.501 147.462 157.322 143.191 C 156.1 138.761 156.35 132.931 156.74 128.639 C 157.078 124.922 157.483 121.99 159.069 118.744 C 160.855 115.088 163.424 111.338 167.509 107.976 C 172.663 103.733 183.147 98.273 189.045 96.334 C 190.014 96.015 190.991 95.889 191.947 95.858 C 193.129 92.025 195.25 87.7 197.776 85.275 C 198.888 84.207 200.311 83.314 201.851 82.581 C 203.699 78.568 207.06 74.028 210.582 71.305 C 214.184 68.521 219.116 66.71 223.388 66.066 Z" style="stroke-width: 2px; stroke: rgb(2, 2, 2); fill: rgb(253, 253, 253);"></path>
    <path stroke="rgb(255,0,0)" d="M 227.58 70.647 C 231.652 70.034 235.595 70.278 239.803 71.812 C 244.759 73.618 251.225 77.437 255.228 81.998 C 256.947 83.957 258.035 86.948 259.02 89.947 C 259.216 89.912 259.408 89.882 259.594 89.856 C 262.647 89.434 265.149 89.98 267.743 91.02 C 270.501 92.126 273.518 93.687 275.601 96.55 C 276.024 97.132 276.445 97.809 276.852 98.553 C 276.92 98.564 276.988 98.575 277.056 98.587 C 281.778 99.446 287.569 101.991 291.317 105.281 C 295.009 108.522 297.838 113.804 299.466 118.086 C 300.936 121.955 302.179 124.505 301.212 129.728 C 299.63 138.266 288.73 160.246 284.041 166.107 C 281.634 169.115 280.067 169.305 277.638 170.182 C 275.06 171.112 271.98 171.783 268.907 171.346 C 265.429 170.851 261.524 167.134 257.847 166.689 C 254.346 166.266 252.198 168.643 247.37 168.436 C 239.69 168.106 222.176 160.607 214.192 161.451 C 208.619 162.04 206.478 166.579 201.968 167.854 C 197.213 169.198 191 169.513 186.253 169.018 C 181.973 168.571 177.766 167.286 174.611 165.525 C 171.806 163.96 169.964 162.048 167.917 159.413 C 165.532 156.344 162.693 152.043 161.514 147.772 C 160.292 143.342 160.542 137.512 160.932 133.22 C 161.27 129.503 161.675 126.571 163.261 123.325 C 165.047 119.669 167.616 115.919 171.701 112.557 C 176.855 108.314 187.339 102.854 193.237 100.915 C 194.206 100.596 195.183 100.47 196.139 100.439 C 197.321 96.606 199.442 92.281 201.968 89.856 C 203.08 88.788 204.503 87.895 206.043 87.162 C 207.891 83.149 211.252 78.609 214.774 75.886 C 218.376 73.102 223.308 71.291 227.58 70.647 Z" style="stroke: rgb(129, 151, 57); fill: rgb(196, 163, 45); paint-order: fill; fill-opacity: 0.41; stroke-width: 0px;"></path>
  </g>
</svg>